<svg width="24" height="22" viewBox="0 0 24 22" fill="none" xmlns="http://www.w3.org/2000/svg">
  <path d="M11.8173 7.19898L15.2529 10.6346L15.2693 10.4546C15.2693 8.64954 13.8023 7.18262 11.9973 7.18262L11.8173 7.19898Z" fill="#DBDCDF"/>
  <path d="M11.9973 5.00105C15.0075 5.00105 17.4506 7.44415 17.4506 10.4544C17.4506 11.1579 17.3089 11.8286 17.0635 12.4448L20.2536 15.635C21.9005 14.2608 23.1984 12.483 24.0001 10.4544C22.1078 5.66639 17.4561 2.27441 11.9974 2.27441C10.4704 2.27441 9.00897 2.54706 7.65109 3.03786L10.0069 5.38822C10.6231 5.14829 11.2938 5.00105 11.9973 5.00105Z" fill="#DBDCDF"/>
  <path d="M1.09064 2.02926L3.57735 4.51597L4.07362 5.01224C2.27403 6.41919 0.850716 8.28969 0 10.4546C1.88686 15.2426 6.54397 18.6346 11.9973 18.6346C13.6878 18.6346 15.302 18.3074 16.7799 17.713L17.2434 18.1765L20.4227 21.3612L21.8133 19.9761L2.48124 0.638672L1.09064 2.02926ZM7.12204 8.05518L8.80711 9.74026C8.75803 9.97477 8.72531 10.2092 8.72531 10.4546C8.72531 12.2597 10.1922 13.7266 11.9973 13.7266C12.2427 13.7266 12.4772 13.6939 12.7062 13.6448L14.3913 15.3299C13.666 15.6898 12.8589 15.9079 11.9973 15.9079C8.98707 15.9079 6.54397 13.4648 6.54397 10.4546C6.54397 9.59302 6.76212 8.78591 7.12204 8.05518Z" fill="#DBDCDF"/>
</svg>
